<?xml version="1.0" standalone="no"?>
<!DOCTYPE svg PUBLIC "-//W3C//DTD SVG 20010904//EN"
 "http://www.w3.org/TR/2001/REC-SVG-20010904/DTD/svg10.dtd">
<svg version="1.0" xmlns="http://www.w3.org/2000/svg"
 width="640.000000pt" height="1280.000000pt" viewBox="0 0 640.000000 1280.000000"
 preserveAspectRatio="xMidYMid meet">
<g transform="translate(0.000000,1280.000000) scale(0.100000,-0.100000)"
fill="#000000" stroke="none">
<path d="M2620 12788 c-161 -45 -204 -62 -271 -106 -97 -64 -189 -165 -238
-263 -78 -155 -72 97 -69 -2964 l3 -2740 27 -73 c38 -106 83 -177 163 -257
128 -128 275 -192 468 -202 l107 -6 0 -3088 0 -3089 385 0 385 0 2 3087 3
3088 100 7 c56 3 130 14 165 23 226 58 421 253 487 485 17 62 18 176 18 2795
0 2578 -1 2734 -18 2794 -70 256 -262 437 -532 500 -86 20 -114 21 -620 20
-315 -1 -544 -5 -565 -11z"/>
</g>
</svg>
